<?xml version="1.0" standalone="no"?>
<!DOCTYPE svg PUBLIC "-//W3C//DTD SVG 20010904//EN"
 "http://www.w3.org/TR/2001/REC-SVG-20010904/DTD/svg10.dtd">
<svg version="1.0" xmlns="http://www.w3.org/2000/svg"
 width="389.000000pt" height="389.000000pt" viewBox="0 0 389.000000 389.000000"
 preserveAspectRatio="xMidYMid meet">
<metadata>
Created by potrace 1.14, written by Peter Selinger 2001-2017
</metadata>
<g transform="translate(0.000000,389.000000) scale(0.100000,-0.100000)"
fill="#000000" stroke="none">
<path d="M1478 2385 c-2 -2 -24 -6 -49 -9 -25 -3 -70 -14 -100 -23 -30 -9 -58
-17 -64 -19 -78 -16 -424 -181 -565 -269 -140 -87 -339 -222 -360 -245 -3 -3
-23 -20 -45 -38 -63 -53 -216 -205 -227 -226 -14 -25 4 -36 63 -36 35 0 52 6
77 28 34 30 41 36 122 102 30 25 57 47 60 51 3 3 37 30 75 60 332 261 621 411
949 495 89 23 126 20 126 -8 0 -14 -195 -208 -349 -348 -179 -163 -241 -236
-241 -282 0 -58 58 -101 126 -93 21 2 127 38 234 79 107 40 240 91 295 111 55
20 109 41 120 46 30 14 296 99 325 104 14 3 40 9 58 14 18 5 33 10 35 9 2 0
41 7 102 17 17 3 65 8 107 11 63 5 83 3 103 -10 28 -19 29 -27 6 -158 -5 -32
-8 -66 -7 -75 2 -10 6 -34 10 -53 15 -85 104 -126 206 -96 27 8 382 142 415
156 11 5 74 31 140 59 152 62 323 143 400 189 92 54 226 144 221 149 -2 2 -55
-20 -117 -50 -279 -134 -1027 -416 -1101 -417 -44 0 -77 43 -69 92 5 38 15
171 15 203 -2 85 -104 123 -269 101 -27 -4 -66 -9 -85 -11 -19 -3 -46 -7 -60
-10 -14 -3 -38 -8 -53 -10 -182 -34 -552 -159 -869 -294 -106 -45 -126 -49
-135 -25 -7 19 22 51 147 158 205 176 348 317 383 378 44 75 38 151 -14 179
-19 10 -133 21 -141 14z"/>
</g>
</svg>
